<svg width="297" height="160" viewBox="0 0 297 160" fill="none" xmlns="http://www.w3.org/2000/svg">
<path d="M55.3055 157.711L13.3565 16.696C12.2505 13.062 11.0655 10.455 9.8015 8.875C8.53754 7.137 6.32554 5.557 3.16554 4.135L0.321541 2.95V0.580002H63.1265V2.95L58.1495 4.846C54.5155 6.268 52.0665 8.006 50.8025 10.06C49.5385 12.114 49.4595 14.958 50.5655 18.592L76.3985 117.184L104.365 34.471L98.9135 17.644C97.8075 14.326 96.7805 11.798 95.8325 10.06C94.8845 8.322 93.3045 6.9 91.0925 5.794L85.8785 2.95V0.580002H145.366V2.95L138.019 5.794C134.859 6.9 133.042 8.559 132.568 10.771C132.252 12.825 132.647 15.511 133.753 18.829L163.852 119.554L192.292 20.725C193.398 16.933 193.793 13.615 193.477 10.771C193.161 7.927 191.186 5.873 187.552 4.609L182.575 2.95V0.580002H215.518V2.95L209.356 5.32C206.196 6.426 203.984 8.164 202.72 10.534C201.456 12.904 200.35 15.827 199.402 19.303L160.06 157.711H143.707L108.157 46.321L71.6585 157.711H55.3055Z" fill="#3E4674"/>
<path d="M111.407 74.8C108.007 74.8 105.107 73.75 102.707 71.65C100.407 69.45 99.257 66.7 99.257 63.4C99.257 60 100.407 57.25 102.707 55.15C105.107 53.05 108.007 52 111.407 52C114.807 52 117.657 53.05 119.957 55.15C122.257 57.25 123.407 60 123.407 63.4C123.407 66.7 122.257 69.45 119.957 71.65C117.657 73.75 114.807 74.8 111.407 74.8ZM93.7072 157V155.5L95.8072 154.9C97.8072 154.3 99.157 153.4 99.857 152.2C100.657 151 101.057 149.4 101.057 147.4V100.45C101.057 98.35 100.657 96.8 99.857 95.8C99.157 94.7 97.8072 93.95 95.8072 93.55L93.7072 93.1V91.6L121.157 82.75L122.657 84.25L122.207 105.55V147.55C122.207 149.55 122.557 151.15 123.257 152.35C124.057 153.55 125.407 154.45 127.307 155.05L128.807 155.5V157H93.7072ZM135.898 157V155.5L137.698 154.9C141.298 153.7 143.098 151.2 143.098 147.4V67.15C143.098 65.15 142.698 63.65 141.898 62.65C141.098 61.55 139.698 60.75 137.698 60.25L135.748 59.8V58.3L163.198 51.85L164.998 53.2L164.398 74.2V125.5C164.398 129.2 164.398 132.9 164.398 136.6C164.498 140.2 164.548 143.8 164.548 147.4C164.548 149.4 164.948 151.05 165.748 152.35C166.548 153.55 167.898 154.45 169.798 155.05L171.748 155.5V157H135.898ZM210.168 159.25C204.268 159.25 198.968 157.95 194.268 155.35C189.568 152.65 185.818 148.55 183.018 143.05C180.318 137.45 178.968 130.3 178.968 121.6C178.968 112.8 180.518 105.55 183.618 99.85C186.718 94.05 190.818 89.75 195.918 86.95C201.018 84.05 206.568 82.6 212.568 82.6C216.068 82.6 219.418 82.95 222.618 83.65C225.818 84.35 228.668 85.4 231.168 86.8V67.3C231.168 65.2 230.818 63.65 230.118 62.65C229.518 61.65 228.168 60.95 226.068 60.55L223.218 59.95V58.45L250.518 51.85L252.168 53.2L251.568 74.2V147.55C251.568 149.55 251.918 151.2 252.618 152.5C253.318 153.7 254.618 154.55 256.518 155.05L257.868 155.5V157L232.218 158.65L230.868 153.25C228.168 155.05 225.068 156.5 221.568 157.6C218.168 158.7 214.368 159.25 210.168 159.25ZM218.868 153.7C223.068 153.7 226.918 152.45 230.418 149.95V90.4C226.718 88 222.918 86.8 219.018 86.8C214.218 86.8 210.118 89.6 206.718 95.2C203.318 100.7 201.618 109.4 201.618 121.3C201.618 133.2 203.218 141.6 206.418 146.5C209.618 151.3 213.768 153.7 218.868 153.7ZM283.122 159.25C279.522 159.25 276.472 158 273.972 155.5C271.472 153 270.222 150 270.222 146.5C270.222 143 271.472 139.95 273.972 137.35C276.472 134.75 279.522 133.45 283.122 133.45C286.722 133.45 289.772 134.75 292.272 137.35C294.772 139.95 296.022 143 296.022 146.5C296.022 150 294.772 153 292.272 155.5C289.772 158 286.722 159.25 283.122 159.25Z" fill="#9097BC"/>
</svg>
