<svg width="283" height="190" viewBox="0 0 283 190" fill="none" xmlns="http://www.w3.org/2000/svg">
<g filter="url(#filter0_i_22:63)">
<path d="M56.2755 178.711L14.3028 37.6168C13.1962 33.9808 12.0105 31.3723 10.7458 29.7914C9.48112 28.0524 7.26787 26.4715 4.10608 25.0487L1.26048 23.863V21.4917H64.1009V23.863L59.1211 25.7601C55.4851 27.1829 53.0347 28.9219 51.77 30.9771C50.5053 33.0322 50.4262 35.8778 51.5328 39.5139L77.3804 138.162L105.362 55.4018L99.9081 38.5654C98.8015 35.2455 97.7739 32.716 96.8254 30.9771C95.8769 29.2381 94.296 27.8153 92.0827 26.7087L86.8658 23.863V21.4917H146.386V23.863L139.035 26.7087C135.873 27.8153 134.055 29.4752 133.581 31.6885C133.265 33.7436 133.66 36.4311 134.767 39.751L164.883 140.533L193.339 41.6481C194.445 37.8539 194.841 34.5341 194.525 31.6885C194.208 28.8429 192.232 26.7877 188.596 25.523L183.616 23.863V21.4917H216.578V23.863L210.412 26.2344C207.251 27.341 205.037 29.08 203.773 31.4513C202.508 33.8227 201.401 36.7473 200.453 40.2253L161.089 178.711H144.726L109.156 67.2585L72.6377 178.711H56.2755Z" fill="#D0DDD8"/>
</g>
<path d="M113.453 106.76C110.506 106.76 107.993 105.85 105.913 104.03C103.92 102.123 102.923 99.74 102.923 96.88C102.923 93.9333 103.92 91.55 105.913 89.73C107.993 87.91 110.506 87 113.453 87C116.4 87 118.87 87.91 120.863 89.73C122.856 91.55 123.853 93.9333 123.853 96.88C123.853 99.74 122.856 102.123 120.863 104.03C118.87 105.85 116.4 106.76 113.453 106.76ZM98.1129 178V176.7L99.9329 176.18C101.666 175.66 102.836 174.88 103.443 173.84C104.136 172.8 104.483 171.413 104.483 169.68V128.99C104.483 127.17 104.136 125.827 103.443 124.96C102.836 124.007 101.666 123.357 99.9329 123.01L98.1129 122.62V121.32L121.903 113.65L123.203 114.95L122.813 133.41V169.81C122.813 171.543 123.116 172.93 123.723 173.97C124.416 175.01 125.586 175.79 127.233 176.31L128.533 176.7V178H98.1129ZM134.678 178V176.7L136.238 176.18C139.358 175.14 140.918 172.973 140.918 169.68V100.13C140.918 98.3967 140.572 97.0967 139.878 96.23C139.185 95.2767 137.972 94.5833 136.238 94.15L134.548 93.76V92.46L158.338 86.87L159.898 88.04L159.378 106.24V150.7C159.378 153.907 159.378 157.113 159.378 160.32C159.465 163.44 159.508 166.56 159.508 169.68C159.508 171.413 159.855 172.843 160.548 173.97C161.242 175.01 162.412 175.79 164.058 176.31L165.748 176.7V178H134.678ZM199.046 179.95C193.932 179.95 189.339 178.823 185.266 176.57C181.192 174.23 177.942 170.677 175.516 165.91C173.176 161.057 172.006 154.86 172.006 147.32C172.006 139.693 173.349 133.41 176.036 128.47C178.722 123.443 182.276 119.717 186.696 117.29C191.116 114.777 195.926 113.52 201.126 113.52C204.159 113.52 207.062 113.823 209.836 114.43C212.609 115.037 215.079 115.947 217.246 117.16V100.26C217.246 98.44 216.942 97.0967 216.336 96.23C215.816 95.3633 214.646 94.7567 212.826 94.41L210.356 93.89V92.59L234.016 86.87L235.446 88.04L234.926 106.24V169.81C234.926 171.543 235.229 172.973 235.836 174.1C236.442 175.14 237.569 175.877 239.216 176.31L240.386 176.7V178L218.156 179.43L216.986 174.75C214.646 176.31 211.959 177.567 208.926 178.52C205.979 179.473 202.686 179.95 199.046 179.95ZM206.586 175.14C210.226 175.14 213.562 174.057 216.596 171.89V120.28C213.389 118.2 210.096 117.16 206.716 117.16C202.556 117.16 199.002 119.587 196.056 124.44C193.109 129.207 191.636 136.747 191.636 147.06C191.636 157.373 193.022 164.653 195.796 168.9C198.569 173.06 202.166 175.14 206.586 175.14ZM262.272 179.95C259.152 179.95 256.509 178.867 254.342 176.7C252.176 174.533 251.092 171.933 251.092 168.9C251.092 165.867 252.176 163.223 254.342 160.97C256.509 158.717 259.152 157.59 262.272 157.59C265.392 157.59 268.036 158.717 270.202 160.97C272.369 163.223 273.452 165.867 273.452 168.9C273.452 171.933 272.369 174.533 270.202 176.7C268.036 178.867 265.392 179.95 262.272 179.95Z" fill="#B2BDB9"/>
<defs>
<filter id="filter0_i_22:63" x="-10.7395" y="21.4917" width="227.317" height="165.22" filterUnits="userSpaceOnUse" color-interpolation-filters="sRGB">
<feFlood flood-opacity="0" result="BackgroundImageFix"/>
<feBlend mode="normal" in="SourceGraphic" in2="BackgroundImageFix" result="shape"/>
<feColorMatrix in="SourceAlpha" type="matrix" values="0 0 0 0 0 0 0 0 0 0 0 0 0 0 0 0 0 0 127 0" result="hardAlpha"/>
<feOffset dx="-16" dy="8"/>
<feGaussianBlur stdDeviation="6"/>
<feComposite in2="hardAlpha" operator="arithmetic" k2="-1" k3="1"/>
<feColorMatrix type="matrix" values="0 0 0 0 0.698403 0 0 0 0 0.741667 0 0 0 0 0.725934 0 0 0 0.24 0"/>
<feBlend mode="normal" in2="shape" result="effect1_innerShadow_22:63"/>
</filter>
</defs>
</svg>
