<svg width="307" height="325" viewBox="0 0 307 325" fill="none" xmlns="http://www.w3.org/2000/svg">
<g filter="url(#filter0_i_23:68)">
<path d="M56.3055 246.711L14.3565 105.696C13.2505 102.062 12.0655 99.455 10.8015 97.875C9.53754 96.137 7.32554 94.557 4.16554 93.135L1.32154 91.95V89.58H64.1265V91.95L59.1495 93.846C55.5155 95.268 53.0665 97.006 51.8025 99.06C50.5385 101.114 50.4595 103.958 51.5655 107.592L77.3985 206.184L105.365 123.471L99.9135 106.644C98.8075 103.326 97.7805 100.798 96.8325 99.06C95.8845 97.322 94.3045 95.9 92.0925 94.794L86.8785 91.95V89.58H146.366V91.95L139.019 94.794C135.859 95.9 134.042 97.559 133.568 99.771C133.252 101.825 133.647 104.511 134.753 107.829L164.852 208.554L193.292 109.725C194.398 105.933 194.793 102.615 194.477 99.771C194.161 96.927 192.186 94.873 188.552 93.609L183.575 91.95V89.58H216.518V91.95L210.356 94.32C207.196 95.426 204.984 97.164 203.72 99.534C202.456 101.904 201.35 104.827 200.402 108.303L161.06 246.711H144.707L109.157 135.321L72.6585 246.711H56.3055Z" fill="#D0DDD8"/>
</g>
<path d="M112.407 163.8C109.007 163.8 106.107 162.75 103.707 160.65C101.407 158.45 100.257 155.7 100.257 152.4C100.257 149 101.407 146.25 103.707 144.15C106.107 142.05 109.007 141 112.407 141C115.807 141 118.657 142.05 120.957 144.15C123.257 146.25 124.407 149 124.407 152.4C124.407 155.7 123.257 158.45 120.957 160.65C118.657 162.75 115.807 163.8 112.407 163.8ZM94.7072 246V244.5L96.8072 243.9C98.8072 243.3 100.157 242.4 100.857 241.2C101.657 240 102.057 238.4 102.057 236.4V189.45C102.057 187.35 101.657 185.8 100.857 184.8C100.157 183.7 98.8072 182.95 96.8072 182.55L94.7072 182.1V180.6L122.157 171.75L123.657 173.25L123.207 194.55V236.55C123.207 238.55 123.557 240.15 124.257 241.35C125.057 242.55 126.407 243.45 128.307 244.05L129.807 244.5V246H94.7072ZM136.898 246V244.5L138.698 243.9C142.298 242.7 144.098 240.2 144.098 236.4V156.15C144.098 154.15 143.698 152.65 142.898 151.65C142.098 150.55 140.698 149.75 138.698 149.25L136.748 148.8V147.3L164.198 140.85L165.998 142.2L165.398 163.2V214.5C165.398 218.2 165.398 221.9 165.398 225.6C165.498 229.2 165.548 232.8 165.548 236.4C165.548 238.4 165.948 240.05 166.748 241.35C167.548 242.55 168.898 243.45 170.798 244.05L172.748 244.5V246H136.898ZM211.168 248.25C205.268 248.25 199.968 246.95 195.268 244.35C190.568 241.65 186.818 237.55 184.018 232.05C181.318 226.45 179.968 219.3 179.968 210.6C179.968 201.8 181.518 194.55 184.618 188.85C187.718 183.05 191.818 178.75 196.918 175.95C202.018 173.05 207.568 171.6 213.568 171.6C217.068 171.6 220.418 171.95 223.618 172.65C226.818 173.35 229.668 174.4 232.168 175.8V156.3C232.168 154.2 231.818 152.65 231.118 151.65C230.518 150.65 229.168 149.95 227.068 149.55L224.218 148.95V147.45L251.518 140.85L253.168 142.2L252.568 163.2V236.55C252.568 238.55 252.918 240.2 253.618 241.5C254.318 242.7 255.618 243.55 257.518 244.05L258.868 244.5V246L233.218 247.65L231.868 242.25C229.168 244.05 226.068 245.5 222.568 246.6C219.168 247.7 215.368 248.25 211.168 248.25ZM219.868 242.7C224.068 242.7 227.918 241.45 231.418 238.95V179.4C227.718 177 223.918 175.8 220.018 175.8C215.218 175.8 211.118 178.6 207.718 184.2C204.318 189.7 202.618 198.4 202.618 210.3C202.618 222.2 204.218 230.6 207.418 235.5C210.618 240.3 214.768 242.7 219.868 242.7ZM284.122 248.25C280.522 248.25 277.472 247 274.972 244.5C272.472 242 271.222 239 271.222 235.5C271.222 232 272.472 228.95 274.972 226.35C277.472 223.75 280.522 222.45 284.122 222.45C287.722 222.45 290.772 223.75 293.272 226.35C295.772 228.95 297.022 232 297.022 235.5C297.022 239 295.772 242 293.272 244.5C290.772 247 287.722 248.25 284.122 248.25Z" fill="#B2BDB9"/>
<defs>
<filter id="filter0_i_23:68" x="1.32153" y="89.58" width="215.196" height="161.131" filterUnits="userSpaceOnUse" color-interpolation-filters="sRGB">
<feFlood flood-opacity="0" result="BackgroundImageFix"/>
<feBlend mode="normal" in="SourceGraphic" in2="BackgroundImageFix" result="shape"/>
<feColorMatrix in="SourceAlpha" type="matrix" values="0 0 0 0 0 0 0 0 0 0 0 0 0 0 0 0 0 0 127 0" result="hardAlpha"/>
<feOffset dy="4"/>
<feGaussianBlur stdDeviation="2"/>
<feComposite in2="hardAlpha" operator="arithmetic" k2="-1" k3="1"/>
<feColorMatrix type="matrix" values="0 0 0 0 0.698403 0 0 0 0 0.741667 0 0 0 0 0.725934 0 0 0 1 0"/>
<feBlend mode="normal" in2="shape" result="effect1_innerShadow_23:68"/>
</filter>
</defs>
</svg>
