<svg width="33" height="24" viewBox="0 0 33 24" fill="none" xmlns="http://www.w3.org/2000/svg">
<path d="M7.23234 23.09L1.92234 5.24C1.78234 4.78 1.63234 4.45 1.47234 4.25C1.31234 4.03 1.03234 3.83 0.632344 3.65L0.272344 3.5V3.2H8.22234V3.5L7.59234 3.74C7.13234 3.92 6.82234 4.14 6.66234 4.4C6.50234 4.66 6.49234 5.02 6.63234 5.48L9.90234 17.96L13.4423 7.49L12.7523 5.36C12.6123 4.94 12.4823 4.62 12.3623 4.4C12.2423 4.18 12.0423 4 11.7623 3.86L11.1023 3.5V3.2H18.6323V3.5L17.7023 3.86C17.3023 4 17.0723 4.21 17.0123 4.49C16.9723 4.75 17.0223 5.09 17.1623 5.51L20.9723 18.26L24.5723 5.75C24.7123 5.27 24.7623 4.85 24.7223 4.49C24.6823 4.13 24.4323 3.87 23.9723 3.71L23.3423 3.5V3.2H27.5123V3.5L26.7323 3.8C26.3323 3.94 26.0523 4.16 25.8923 4.46C25.7323 4.76 25.5923 5.13 25.4723 5.57L20.4923 23.09H18.4223L13.9223 8.99L9.30234 23.09H7.23234ZM28.3535 23.45C27.6335 23.45 27.0235 23.2 26.5235 22.7C26.0235 22.2 25.7735 21.6 25.7735 20.9C25.7735 20.2 26.0235 19.59 26.5235 19.07C27.0235 18.55 27.6335 18.29 28.3535 18.29C29.0735 18.29 29.6835 18.55 30.1835 19.07C30.6835 19.59 30.9335 20.2 30.9335 20.9C30.9335 21.6 30.6835 22.2 30.1835 22.7C29.6835 23.2 29.0735 23.45 28.3535 23.45Z" fill="#3E4674"/>
</svg>
